<svg width="40" height="40" viewBox="0 0 15 15" xmlns="http://www.w3.org/2000/svg">
    <path fill-rule="evenodd" clip-rule="evenodd" d="M1 3.86667C1 2.83574 1.7835 2 2.75 2H6.03823C6.29871 2 6.5489 2.10163 6.73559 2.28327L8.5 4L13 4C14.1046 4 15 4.89543 15 6V8.75777C14.285 8.27914 13.4251 8 12.5 8C10.0147 8 8 10.0147 8 12.5C8 13.026 8.09023 13.5308 8.25606 14H2.75C1.7835 14 1 13.1643 1 12.1333V3.86667Z" fill="#FFD1DC"/>
    <path fill-rule="evenodd" clip-rule="evenodd" d="M7.80265 4.71673L8.09379 5H8.5H13C13.5523 5 14 5.44772 14 6V8.25606C14.356 8.3819 14.6915 8.55127 15 8.75777V6C15 4.89543 14.1046 4 13 4L8.5 4L6.73559 2.28327C6.5489 2.10163 6.29871 2 6.03823 2H2.75C1.7835 2 1 2.83574 1 3.86667V12.1333C1 13.1643 1.7835 14 2.75 14H8.25606C8.14352 13.6816 8.06579 13.3467 8.02746 13H2.75C2.3956 13 2 12.6738 2 12.1333V3.86667C2 3.32624 2.3956 3 2.75 3H6.03823L7.80265 4.71673Z" fill="#FF69B4"/>
    <path d="M11.5 11.5C11.5 10.5 12.3 10 13 10C13.7 10 14.5 10.5 14.5 11.5C14.5 12.3 14 13 13.5 13.5C13.2 13.8 12.7 14.1 12.3 14.5C11.9 14.1 11.4 13.8 11.1 13.5C10.6 13 10 12.3 10 11.5C10 10.5 10.8 10 11.5 10C12.2 10 13 10.9 13 11.5Z" fill="#FF69B4"/>
</svg>
